<mxfile host="app.diagrams.net" modified="2023-11-20T03:12:42.369Z" agent="Mozilla/5.0 (Windows NT 10.0; Win64; x64) AppleWebKit/537.36 (KHTML, like Gecko) Chrome/119.0.0.0 Safari/537.36" version="22.1.3" etag="_p8_-uTH1qb3fQd4UJyA" type="github">
  <diagram name="Page-1" id="UCxHq5c1QLXLFiOYgWS4">
    <mxGraphModel>
      <root>
        <mxCell id="0" />
        <mxCell id="1" parent="0" />
      </root>
    </mxGraphModel>
  </diagram>
</mxfile>
